<svg width="80" height="80" viewBox="0 0 80 80" fill="none" xmlns="http://www.w3.org/2000/svg">
<g clip-path="url(#clip0_253_641)">
<path d="M17 53.4768L32.4111 44.4927V79.9989L17 71.4473V53.4768Z" fill="#E32E27"/>
<path d="M17 17.9683L32.4111 26.9524V44.4927L17 53.4768V17.9683ZM47.8222 53.4768L63.2321 62.033L32.4099 80V62.033L47.821 53.4768H47.8222Z" fill="#EF382C"/>
<path d="M63.2322 44.4927V62.033L47.8223 53.4768L63.2322 44.4927Z" fill="#F26C65"/>
<path d="M47.8215 17.9683L63.2314 26.9524L47.8203 35.5086V17.9683H47.8215Z" fill="#F7A9A7"/>
<path d="M63.2322 8.98413V26.9524L47.8223 17.9682L63.2322 8.98413Z" fill="#F26B65"/>
<path d="M47.8215 35.5085V53.4768L63.2314 44.4927L47.8203 35.5085H47.8215Z" fill="#F7A9A7"/>
<path d="M32.4113 44.4927L47.8212 53.4768V35.5085L32.4102 44.4927H32.4113Z" fill="#FBCBC8"/>
<path d="M47.8223 0V17.9682L63.2322 8.98411L47.8223 0Z" fill="#EF382C"/>
<path d="M32.4111 8.98411L17 17.9682L32.4111 26.9523L47.8222 17.9682V0L32.4099 8.98411H32.4111Z" fill="#E32E27"/>
<path d="M32.4113 44.4927L47.8212 53.4768L32.4102 62.033V44.4927H32.4113Z" fill="#FDEAEA"/>
</g>
<defs>
<clipPath id="clip0_253_641">
<rect width="80" height="80" fill="white"/>
</clipPath>
</defs>
</svg>
