<svg width="80" height="80" viewBox="0 0 80 80" fill="none" xmlns="http://www.w3.org/2000/svg">
<g clip-path="url(#clip0_545_5475)">
<path d="M17.0442 0.0687505C16.9192 0.1175 13.4067 2.11875 9.23985 4.51375C4.1911 7.41625 1.59798 8.945 1.45923 9.08875C1.34048 9.22937 1.24672 9.39 1.18547 9.56375C1.0811 9.91625 1.0736 61.4294 1.17922 61.8C1.21735 61.9437 1.34172 62.155 1.45422 62.2712C1.72672 62.5588 31.8692 79.89 32.2355 79.9738C32.4055 80.0144 32.5961 80.0075 32.7855 79.955C33.1967 79.8519 63.2605 62.5587 63.528 62.2762C63.6374 62.1544 63.7624 61.9437 63.803 61.8006C63.8555 61.63 63.8749 58.9381 63.8749 53.2662V44.9788L71.2036 40.7694C78.1136 36.7963 78.5367 36.5475 78.7142 36.275L78.8955 35.9813V27.0544C78.8955 17.3369 78.9142 17.8838 78.5299 17.5325C78.4267 17.4412 74.9061 15.3869 70.6986 12.9638L63.0561 8.56875H62.2067L54.7299 12.8625C50.6136 15.23 47.1149 17.2544 46.9442 17.3644C46.7742 17.4769 46.5711 17.6844 46.488 17.835L46.3367 18.0956L46.303 26.505L46.273 34.9175L40.0986 38.4737C36.7024 40.4263 33.8755 42.0425 33.8155 42.0575C33.7061 42.0881 33.6986 41.2875 33.6986 25.8288V9.55813L33.5361 9.27875C33.3324 8.93812 34.2461 9.48125 25.0711 4.2075C17.3767 -0.217499 17.5617 -0.125 17.0442 0.0687505ZM24.1174 6.51062C27.3361 8.3575 29.9699 9.88562 29.9699 9.90438C29.9699 9.92375 27.1474 11.555 23.698 13.5375L17.4224 17.1406L11.158 13.5381C7.7161 11.555 4.89548 9.92375 4.89548 9.90438C4.89548 9.885 7.7111 8.25438 11.1536 6.27625L17.403 2.68125L17.8342 2.91625C19.9326 4.10792 22.0269 5.30604 24.1174 6.51062ZM68.9099 14.7987C72.2986 16.75 75.1024 18.3625 75.1286 18.3888C75.1999 18.4531 62.7699 25.5981 62.5999 25.5906C62.4299 25.5856 50.153 18.5063 50.158 18.42C50.1642 18.3219 62.5161 11.2156 62.6411 11.235C62.698 11.2487 65.5205 12.8538 68.9099 14.7987ZM10.1874 15.83L16.1611 19.2694L16.1955 36.2987L16.2267 53.3313L16.3724 53.5612C16.4486 53.6825 16.5924 53.8481 16.6974 53.9244C16.7961 53.9962 20.1205 55.8906 24.0836 58.1269L31.2836 62.1931V69.3975C31.2836 73.3512 31.2567 76.595 31.223 76.595C31.1974 76.595 24.973 73.0331 17.3955 68.6725L3.62048 60.7506L3.60173 36.3969L3.58985 12.0506L3.8961 12.22C4.07298 12.3138 6.90048 13.9375 10.1867 15.8294L10.1874 15.83ZM31.2836 27.8175V43.5106L31.0417 43.6688C30.7136 43.8762 18.7499 50.7531 18.7092 50.7531C18.6905 50.7531 18.6755 43.6681 18.6755 35.0075L18.683 19.2688L24.933 15.6737C28.3699 13.6956 31.2042 12.0906 31.238 12.1025C31.2624 12.1175 31.2836 19.19 31.2836 27.8175ZM55.1274 24.2081L61.3917 27.81V34.95C61.3917 41.7237 61.3849 42.0875 61.2817 42.0481C61.2149 42.0225 58.3805 40.3981 54.9799 38.4394L48.7861 34.8831V27.7456C48.7861 23.8163 48.8061 20.6056 48.8249 20.6056C48.8517 20.6056 51.6855 22.2256 55.1274 24.2081ZM76.4799 27.7C76.4799 31.6088 76.4536 34.8325 76.4274 34.8638C76.3824 34.9356 63.9924 42.075 63.9136 42.075C63.8942 42.075 63.8749 38.8656 63.8749 34.9356V27.7981L70.1249 24.2006C73.5667 22.2256 76.4011 20.6056 76.4274 20.6056C76.4605 20.6056 76.4799 23.7963 76.4799 27.7ZM59.9955 44.3331L32.503 60.025L20.0349 52.9331C20.0349 52.9331 47.4999 37.0481 47.6099 37.0894L59.9955 44.3331ZM61.3799 53.6L61.3586 60.7512L47.5911 68.6737C40.0161 73.0338 33.7899 76.5956 33.7586 76.5956C33.7255 76.5956 33.6992 73.6844 33.6992 69.3981V62.1938L47.4992 54.3237C55.0817 49.9969 61.3124 46.455 61.3455 46.4475C61.3724 46.4475 61.3842 49.665 61.3792 53.5994L61.3799 53.6Z" fill="#F0513F"/>
</g>
<defs>
<clipPath id="clip0_545_5475">
<rect width="80" height="80" fill="white"/>
</clipPath>
</defs>
</svg>
