<svg width="32" height="32" viewBox="0 0 32 32" fill="none" xmlns="http://www.w3.org/2000/svg">
<g clip-path="url(#clip0_952_135)">
<path d="M29.422 24.5605C27.6788 24.5127 26.3478 24.6757 25.209 25.1552C24.8858 25.292 24.3703 25.295 24.3175 25.7002C24.4953 25.8867 24.5225 26.165 24.6643 26.3945C24.9358 26.833 25.3948 27.4227 25.804 27.7325C26.2513 28.0695 26.7123 28.4307 27.1918 28.7227C28.0453 29.2432 28.9975 29.5402 29.8178 30.0607C30.3023 30.3682 30.7825 30.755 31.2553 31.1017C31.4888 31.2727 31.646 31.5392 31.9485 31.6467V31.598C31.7893 31.395 31.7483 31.1155 31.6018 30.9037L30.9573 30.2592C30.3273 29.4232 29.5275 28.689 28.678 28.0795C28.0003 27.5922 26.4828 26.935 26.2005 26.147L26.1508 26.0972C26.6313 26.0425 27.1938 25.8687 27.638 25.7495C28.383 25.5502 29.0493 25.602 29.8178 25.4027L30.8588 25.106V24.9077C30.47 24.5092 30.1928 23.981 29.769 23.6197C28.6588 22.6745 27.4478 21.731 26.2008 20.944C25.5093 20.5075 24.6548 20.2232 23.9215 19.8532C23.6745 19.7292 23.2418 19.6637 23.0788 19.4567C22.694 18.9665 22.484 18.3445 22.1873 17.7722C21.5653 16.574 20.9548 15.2665 20.403 14.0057C20.027 13.1465 19.782 12.2987 19.3133 11.5282C17.0633 7.82896 14.6415 5.59571 10.8895 3.40121C10.0908 2.93446 9.12976 2.74996 8.11401 2.50871L6.47826 2.40996C6.14526 2.27121 5.79951 1.86396 5.48701 1.66571C4.24426 0.87996 1.05576 -0.82804 0.134764 1.41796C-0.446236 2.83496 1.00401 4.21771 1.52251 4.93646C1.88676 5.43946 2.35251 6.00471 2.61226 6.57121C2.78426 6.94421 2.81351 7.31721 2.96001 7.71096C3.31951 8.68171 3.63376 9.73821 4.09976 10.6347C4.33501 11.0887 4.59476 11.5665 4.89276 11.9727C5.07451 12.2217 5.38776 12.3322 5.43776 12.716C5.13101 13.1447 5.11351 13.8097 4.94176 14.3517C4.16726 16.7942 4.46026 19.8292 5.58626 21.636C5.93201 22.1917 6.74651 23.381 7.86551 22.925C8.84501 22.5255 8.62626 21.2902 8.90651 20.1995C8.97001 19.9525 8.93102 19.7707 9.05501 19.6047V19.6545L9.94751 21.4377C10.6078 22.5012 11.7785 23.6125 12.7718 24.3625C13.2865 24.7512 13.6918 25.423 14.3578 25.6505V25.6007H14.308C14.179 25.3995 13.977 25.3165 13.813 25.1555C13.4253 24.7747 12.9938 24.302 12.6733 23.8665C11.77 22.641 10.972 21.299 10.2455 19.9027C9.89776 19.2357 9.59601 18.5005 9.30301 17.8217C9.18976 17.56 9.19176 17.1635 8.95626 17.0287C8.63601 17.5257 8.16326 17.9282 7.91526 18.515C7.51976 19.4535 7.46801 20.599 7.32151 21.7855C7.23451 21.8167 7.27276 21.7952 7.22201 21.8352C6.53151 21.6682 6.28951 20.9582 6.03251 20.348C5.38401 18.807 5.26301 16.3255 5.83426 14.5502C5.98176 14.0912 6.64976 12.646 6.37926 12.2212C6.25026 11.7985 5.82451 11.5532 5.58626 11.23C5.29126 10.8305 4.99751 10.3042 4.79326 9.84221C4.26201 8.64096 4.01501 7.29146 3.45526 6.07671C3.18776 5.49571 2.73651 4.90771 2.36551 4.39221C1.95426 3.81996 1.49451 3.39796 1.17601 2.70671C1.06276 2.46071 0.909514 2.06696 1.07651 1.81521C1.13026 1.64421 1.20551 1.57296 1.37426 1.51746C1.66126 1.29571 2.46226 1.59171 2.76101 1.71571C3.55601 2.04571 4.21901 2.36021 4.89276 2.80646C5.21501 3.02021 5.54226 3.43446 5.93276 3.54971H6.37901C7.07626 3.70996 7.85751 3.59846 8.50976 3.79671C9.66201 4.14721 10.6943 4.69221 11.6318 5.28396C14.4873 7.08771 16.8233 9.65396 18.4208 12.7175C18.6775 13.2107 18.789 13.6805 19.0155 14.2037C19.4715 15.2585 20.0468 16.3435 20.5008 17.3757C20.9548 18.404 21.3963 19.4432 22.0378 20.2995C22.3748 20.7497 23.6755 20.991 24.2673 21.241C24.6823 21.4157 25.362 21.5985 25.7545 21.8357C26.5045 22.288 27.231 22.827 27.9353 23.322C28.2858 23.57 29.3678 24.114 29.4215 24.5612L29.422 24.5605ZM7.27076 5.68046C6.90751 5.67371 6.65076 5.71946 6.37926 5.77921V5.82896H6.42801C6.60176 6.18446 6.90751 6.41396 7.12226 6.72046L7.61726 7.76146L7.66701 7.71271C7.97376 7.49596 8.11426 7.15021 8.11226 6.62196C7.98926 6.49196 7.97176 6.33096 7.86426 6.17571C7.72376 5.96971 7.44926 5.85346 7.27051 5.68071L7.27076 5.68046Z" fill="#00618A"/>
</g>
<defs>
<clipPath id="clip0_952_135">
<rect width="32" height="32" fill="white"/>
</clipPath>
</defs>
</svg>
