<svg width="32" height="32" viewBox="0 0 32 32" fill="none" xmlns="http://www.w3.org/2000/svg">
<path d="M21.6305 0.151597C21.1288 0.447847 20.2935 1.2866 19.301 2.50335L20.214 4.2291C20.8565 3.3126 21.5083 2.48485 22.1658 1.7791C21.9528 2.01235 21.3065 2.7681 20.3325 4.26435C21.2713 4.2181 22.712 4.02535 23.888 3.82535C24.2398 1.86435 23.5455 0.968097 23.5455 0.968097C23.5455 0.968097 22.6638 -0.457403 21.6305 0.151597Z" fill="url(#paint0_linear_952_106)"/>
<path d="M18.5585 14.6489C18.4418 14.6692 18.3235 14.6914 18.1993 14.7119C18.1993 14.7119 18.1975 14.7119 18.1975 14.7137L18.3825 14.6859C18.44 14.6729 18.4993 14.6619 18.5585 14.6489Z" fill="#BD202E"/>
<path opacity="0.35" d="M18.5585 14.6489C18.4418 14.6692 18.3235 14.6914 18.1993 14.7119C18.1993 14.7119 18.1975 14.7119 18.1975 14.7137L18.3825 14.6859C18.44 14.6729 18.4993 14.6619 18.5585 14.6489Z" fill="#BD202E"/>
<path d="M18.864 13.1398C18.864 13.1398 18.864 13.1416 18.864 13.1398C18.8625 13.1395 18.8619 13.1401 18.8623 13.1416C18.8808 13.1398 18.901 13.1361 18.9198 13.1323C18.9973 13.1213 19.0733 13.1083 19.1473 13.0898C19.0548 13.1066 18.9623 13.1231 18.864 13.1398Z" fill="#BD202E"/>
<path opacity="0.35" d="M18.864 13.1398C18.864 13.1398 18.864 13.1416 18.864 13.1398C18.8625 13.1395 18.8619 13.1401 18.8623 13.1416C18.8808 13.1398 18.901 13.1361 18.9198 13.1323C18.9973 13.1213 19.0733 13.1083 19.1473 13.0898C19.0548 13.1066 18.9623 13.1231 18.864 13.1398Z" fill="#BD202E"/>
<path d="M17.5177 8.68988C17.7906 8.17873 18.0714 7.67191 18.3602 7.16963C18.6489 6.66614 18.9477 6.16853 19.2565 5.67713C19.2732 5.64913 19.2935 5.61963 19.3102 5.59188C19.6006 5.1315 19.9012 4.67772 20.212 4.23088L19.2992 2.50488C19.2293 2.59007 19.1601 2.67591 19.0917 2.76238C18.8129 3.11021 18.5401 3.46276 18.2732 3.81988C17.9418 4.26383 17.6176 4.71322 17.301 5.16788C16.986 5.62015 16.6773 6.07686 16.3752 6.53788C16.106 6.94908 15.8424 7.36395 15.5845 7.78238C15.5752 7.79755 15.566 7.81363 15.557 7.83063L16.7475 10.1824C16.9964 9.68088 17.2532 9.18332 17.5177 8.68988Z" fill="url(#paint1_linear_952_106)"/>
<path d="M12.0957 21.9336C11.9348 22.3739 11.7768 22.8153 11.6217 23.2576C11.6197 23.2631 11.618 23.2706 11.6143 23.2761C11.592 23.3391 11.568 23.4039 11.5478 23.4669C11.4403 23.7706 11.3478 24.0446 11.1348 24.6651C11.4848 24.8244 11.7663 25.2464 12.0328 25.7241C12.0083 25.2196 11.7845 24.7454 11.4105 24.4059C13.1382 24.4834 14.6272 24.0466 15.3975 22.7836C15.466 22.6706 15.529 22.5539 15.5863 22.4261C15.2363 22.8706 14.8012 23.0576 13.9845 23.0131C15.1883 22.4744 15.79 21.9576 16.3253 21.1021C16.4513 20.8986 16.5753 20.6781 16.7013 20.4319C15.6493 21.5114 14.4327 21.8189 13.1495 21.5856L12.1865 21.6911C12.155 21.7726 12.1272 21.8521 12.0957 21.9336Z" fill="url(#paint2_linear_952_106)"/>
<path d="M12.5457 19.7799C12.7532 19.2432 12.968 18.6987 13.1865 18.1507C13.3985 17.6206 13.6146 17.0921 13.8347 16.5654C14.0581 16.0317 14.2839 15.499 14.5122 14.9674C14.7461 14.4249 14.9862 13.8842 15.2327 13.3452C15.4732 12.8144 15.7189 12.286 15.9697 11.7602C16.0585 11.5712 16.1512 11.3824 16.242 11.1952C16.3995 10.8712 16.5585 10.5489 16.7195 10.2304C16.729 10.2139 16.7362 10.1954 16.7455 10.1787L15.555 7.8269C15.5363 7.85903 15.5165 7.89054 15.4957 7.9214C15.2143 8.38026 14.9396 8.84323 14.6717 9.31015C14.3954 9.79223 14.1268 10.2787 13.866 10.7694C13.6445 11.1872 13.4278 11.6076 13.216 12.0304C13.1735 12.1154 13.1327 12.2027 13.0902 12.2879C12.8429 12.7977 12.6077 13.3133 12.3847 13.8342C12.1572 14.3635 11.9454 14.8995 11.7497 15.4414C11.6272 15.7764 11.518 16.0989 11.4162 16.4099C11.333 16.6747 11.255 16.9414 11.1772 17.2062C11.0007 17.8209 10.8481 18.4423 10.7197 19.0689L11.9162 21.4299C12.0737 21.0079 12.2365 20.5782 12.4032 20.1449C12.4532 20.0209 12.4977 19.8987 12.5457 19.7799Z" fill="url(#paint3_linear_952_106)"/>
<path d="M10.707 19.1488C10.557 19.9043 10.4495 20.6563 10.3958 21.4043L10.3903 21.4818C10.0163 20.8838 9.01825 20.3006 9.02 20.3061C9.73675 21.3431 10.2793 22.3728 10.3588 23.3836C9.9755 23.4616 9.45125 23.3486 8.846 23.1263C9.4775 23.7078 9.9515 23.8671 10.1385 23.9113C9.557 23.9486 8.9535 24.3468 8.344 24.8061C9.23475 24.4431 9.95525 24.2986 10.47 24.4153C9.6515 26.7298 8.833 29.2853 8.0125 32.0001C8.2645 31.9261 8.4145 31.7556 8.49775 31.5278C8.644 31.0371 9.61275 27.8113 11.1328 23.5763C11.1773 23.4561 11.22 23.3338 11.2643 23.2133C11.2759 23.1783 11.2883 23.145 11.3015 23.1133C11.4608 22.6691 11.629 22.2153 11.7995 21.7523C11.8385 21.6468 11.8773 21.5413 11.918 21.4358C11.918 21.4338 11.92 21.4321 11.92 21.4301L10.7218 19.0691C10.7174 19.0958 10.7126 19.1224 10.707 19.1488Z" fill="url(#paint4_linear_952_106)"/>
<path d="M16.9308 10.3749C16.8958 10.4454 16.8623 10.5157 16.827 10.5862C16.7235 10.7989 16.6195 11.0157 16.5123 11.2379C16.3973 11.4787 16.2828 11.7229 16.166 11.9749C16.1067 12.1009 16.0474 12.2287 15.9883 12.3582C15.8055 12.757 15.6252 13.157 15.4475 13.5582C15.2138 14.0833 14.9848 14.6105 14.7605 15.1397C14.5403 15.6617 14.3123 16.2007 14.0865 16.7597C13.8698 17.2897 13.6515 17.8377 13.429 18.4004C13.2255 18.9161 13.0262 19.4335 12.831 19.9524C12.8218 19.9764 12.8125 20.0042 12.8033 20.0282C12.6033 20.5559 12.4013 21.0987 12.1995 21.6542C12.1958 21.6669 12.1903 21.6782 12.1865 21.6929L13.1495 21.5874C13.131 21.5837 13.1105 21.5819 13.092 21.5782C14.242 21.4357 15.7735 20.5744 16.7605 19.5134C17.216 19.0247 17.629 18.4469 18.0105 17.7709C18.2935 17.2692 18.5626 16.7101 18.8178 16.0934C19.0536 15.5165 19.2673 14.9309 19.4585 14.3377C19.1935 14.4767 18.8918 14.5802 18.5585 14.6507C18.4993 14.6637 18.44 14.6747 18.379 14.6857C18.318 14.6968 18.2563 14.7062 18.1938 14.7137C18.1938 14.7137 18.1955 14.7137 18.1955 14.7119C19.2695 14.2989 19.9455 13.5027 20.4363 12.5269C20.1548 12.7194 19.6955 12.9712 19.1455 13.0914C19.0511 13.112 18.9561 13.1293 18.8605 13.1434H18.864C19.238 12.9879 19.551 12.8119 19.8233 12.6064C19.8825 12.5619 19.94 12.5174 19.9918 12.4694C20.075 12.3969 20.153 12.3212 20.2308 12.2434C20.2788 12.1917 20.325 12.1397 20.3715 12.0859C20.479 11.9586 20.579 11.821 20.6715 11.6732C20.699 11.6267 20.729 11.5824 20.7548 11.5342C20.7917 11.4657 20.825 11.3972 20.8585 11.3324C20.9908 11.0689 21.1125 10.8002 21.2233 10.5269C21.2713 10.4084 21.312 10.3009 21.349 10.1972C21.364 10.1564 21.3768 10.1177 21.3898 10.0787C21.4288 9.96566 21.4583 9.86566 21.4823 9.77691C21.5195 9.64341 21.5418 9.53791 21.5528 9.46191C21.5158 9.48991 21.4753 9.51941 21.4268 9.54716C21.1028 9.74166 20.5473 9.91566 20.0993 9.99916C20.0935 10.0009 20.0863 10.0009 20.0788 10.0027C20.0325 10.0102 19.99 10.0177 19.9438 10.0232L19.9658 10.0119L16.942 10.3434C16.94 10.3545 16.9362 10.3651 16.9308 10.3749Z" fill="url(#paint5_linear_952_106)"/>
<path d="M20.3342 4.26424C20.0325 4.72975 19.7393 5.20075 19.4548 5.67699C19.1407 6.20573 18.8345 6.73913 18.5362 7.27699C18.2558 7.78648 17.9817 8.29944 17.714 8.81574C17.4526 9.32233 17.1964 9.83161 16.9455 10.3435L19.9695 10.012C20.851 9.60649 21.2435 9.24174 21.625 8.71024C21.725 8.56399 21.8287 8.41224 21.9287 8.25274C22.2489 7.75045 22.5449 7.2332 22.8158 6.70274C23.0785 6.19024 23.31 5.68274 23.4877 5.22349C23.5911 4.96186 23.6802 4.6948 23.7545 4.42349C23.81 4.21424 23.8527 4.01424 23.886 3.82349C22.7137 4.02524 21.2712 4.21799 20.3342 4.26424Z" fill="url(#paint6_linear_952_106)"/>
<path d="M18.379 14.6821C18.318 14.6931 18.2562 14.7024 18.1937 14.7099C18.2567 14.7044 18.3195 14.6931 18.3787 14.6821H18.379Z" fill="#BD202E"/>
<path opacity="0.35" d="M18.379 14.6821C18.318 14.6931 18.2562 14.7024 18.1937 14.7099C18.2567 14.7044 18.3195 14.6931 18.3787 14.6821H18.379Z" fill="#BD202E"/>
<path d="M18.379 14.6821C18.318 14.6931 18.2562 14.7024 18.1937 14.7099C18.2567 14.7044 18.3197 14.6931 18.379 14.6821Z" fill="url(#paint7_linear_952_106)"/>
<path d="M18.8623 13.1416C18.8808 13.1398 18.901 13.1361 18.9198 13.1323C18.901 13.1343 18.8825 13.1398 18.8623 13.1416Z" fill="#BD202E"/>
<path opacity="0.35" d="M18.8623 13.1416C18.8808 13.1398 18.901 13.1361 18.9198 13.1323C18.901 13.1343 18.8825 13.1398 18.8623 13.1416Z" fill="#BD202E"/>
<path d="M18.8623 13.1416C18.8808 13.1398 18.901 13.1361 18.9198 13.1323C18.901 13.1343 18.8825 13.1398 18.8623 13.1416Z" fill="url(#paint8_linear_952_106)"/>
<path d="M18.8623 13.1414C18.864 13.1397 18.864 13.1414 18.8623 13.1414C18.864 13.1397 18.864 13.1414 18.8623 13.1414Z" fill="#BD202E"/>
<path opacity="0.35" d="M18.8623 13.1414C18.864 13.1397 18.864 13.1414 18.8623 13.1414C18.864 13.1397 18.864 13.1414 18.8623 13.1414Z" fill="#BD202E"/>
<defs>
<linearGradient id="paint0_linear_952_106" x1="20.0693" y1="2.71785" x2="26.7695" y2="0.855097" gradientUnits="userSpaceOnUse">
<stop stop-color="#F59723"/>
<stop offset="0.312" stop-color="#F69822"/>
<stop offset="0.838" stop-color="#E87726"/>
</linearGradient>
<linearGradient id="paint1_linear_952_106" x1="5.40275" y1="32.7889" x2="19.031" y2="3.56288" gradientUnits="userSpaceOnUse">
<stop offset="0.323" stop-color="#9C2063"/>
<stop offset="0.63" stop-color="#C82037"/>
<stop offset="0.751" stop-color="#CC2135"/>
<stop offset="1" stop-color="#E87726"/>
</linearGradient>
<linearGradient id="paint2_linear_952_106" x1="9.97575" y1="30.6261" x2="18.0968" y2="13.2101" gradientUnits="userSpaceOnUse">
<stop stop-color="#282661"/>
<stop offset="0.095" stop-color="#662E8C"/>
<stop offset="0.788" stop-color="#9E2064"/>
<stop offset="0.949" stop-color="#CC2032"/>
</linearGradient>
<linearGradient id="paint3_linear_952_106" x1="5.894" y1="31.0194" x2="19.5223" y2="1.79341" gradientUnits="userSpaceOnUse">
<stop offset="0.323" stop-color="#9C2063"/>
<stop offset="0.63" stop-color="#C82037"/>
<stop offset="0.751" stop-color="#CC2135"/>
<stop offset="1" stop-color="#E87726"/>
</linearGradient>
<linearGradient id="paint4_linear_952_106" x1="7.2845" y1="29.0731" x2="14.4465" y2="13.7138" gradientUnits="userSpaceOnUse">
<stop stop-color="#282661"/>
<stop offset="0.095" stop-color="#662E8C"/>
<stop offset="0.788" stop-color="#9E2064"/>
<stop offset="0.949" stop-color="#CC2032"/>
</linearGradient>
<linearGradient id="paint5_linear_952_106" x1="8.92" y1="32.4304" x2="22.548" y2="3.20441" gradientUnits="userSpaceOnUse">
<stop offset="0.323" stop-color="#9C2063"/>
<stop offset="0.63" stop-color="#C82037"/>
<stop offset="0.751" stop-color="#CC2135"/>
<stop offset="1" stop-color="#E87726"/>
</linearGradient>
<linearGradient id="paint6_linear_952_106" x1="7.923" y1="34.173" x2="21.5512" y2="4.94699" gradientUnits="userSpaceOnUse">
<stop offset="0.323" stop-color="#9C2063"/>
<stop offset="0.63" stop-color="#C82037"/>
<stop offset="0.751" stop-color="#CC2135"/>
<stop offset="1" stop-color="#E87726"/>
</linearGradient>
<linearGradient id="paint7_linear_952_106" x1="9.81803" y1="32.8491" x2="23.4461" y2="3.62317" gradientUnits="userSpaceOnUse">
<stop offset="0.323" stop-color="#9C2063"/>
<stop offset="0.63" stop-color="#C82037"/>
<stop offset="0.751" stop-color="#CC2135"/>
<stop offset="1" stop-color="#E87726"/>
</linearGradient>
<linearGradient id="paint8_linear_952_106" x1="9.71612" y1="32.8034" x2="23.3458" y2="3.57573" gradientUnits="userSpaceOnUse">
<stop offset="0.323" stop-color="#9C2063"/>
<stop offset="0.63" stop-color="#C82037"/>
<stop offset="0.751" stop-color="#CC2135"/>
<stop offset="1" stop-color="#E87726"/>
</linearGradient>
</defs>
</svg>
