<svg width="32" height="32" viewBox="0 0 32 32" fill="none" xmlns="http://www.w3.org/2000/svg">
<path fill-rule="evenodd" clip-rule="evenodd" d="M16 1.27563C7.66325 1.27563 0.903 8.03438 0.903 16.3726C0.903 23.0431 5.22875 28.7019 11.2273 30.6984C11.9815 30.8384 12.2585 30.3709 12.2585 29.9721C12.2585 29.6121 12.2445 28.4229 12.238 27.1614C8.038 28.0746 7.15175 25.3801 7.15175 25.3801C6.465 23.6351 5.4755 23.1711 5.4755 23.1711C4.1055 22.2341 5.57875 22.2536 5.57875 22.2536C7.0945 22.3599 7.893 23.8094 7.893 23.8094C9.2395 26.1169 11.4248 25.4499 12.2863 25.0644C12.4218 24.0886 12.813 23.4224 13.2448 23.0454C9.8915 22.6641 6.36625 21.3694 6.36625 15.5846C6.36625 13.9364 6.95625 12.5896 7.922 11.5321C7.765 11.1521 7.24825 9.61663 8.068 7.53713C8.068 7.53713 9.3355 7.13138 12.2205 9.08463C13.425 8.74988 14.7168 8.58163 16 8.57588C17.2825 8.58163 18.575 8.74938 19.7817 9.08414C22.6632 7.13089 23.9293 7.53663 23.9293 7.53663C24.751 9.61588 24.2342 11.1516 24.0775 11.5316C25.0455 12.5891 25.6313 13.9359 25.6313 15.5841C25.6313 21.3826 22.0995 22.6591 18.7377 23.0331C19.2795 23.5016 19.762 24.4206 19.762 25.8289C19.762 27.8489 19.7445 29.4746 19.7445 29.9719C19.7445 30.3736 20.0165 30.8444 20.7815 30.6961C26.7765 28.6976 31.0972 23.0406 31.0972 16.3726C31.097 8.03488 24.3375 1.27563 16 1.27563Z" fill="#181616"/>
<path d="M6.621 22.9514C6.58775 23.0264 6.46975 23.0489 6.36225 22.9976C6.25225 22.9486 6.191 22.8464 6.2265 22.7711C6.259 22.6936 6.37725 22.6724 6.4865 22.7241C6.5965 22.7734 6.659 22.8766 6.62075 22.9516L6.621 22.9514ZM7.2325 23.6336C7.16075 23.7004 7.02 23.6694 6.9245 23.5636C6.8255 23.4586 6.807 23.3179 6.88025 23.2501C6.95475 23.1836 7.09125 23.2151 7.19025 23.3201C7.28875 23.4266 7.30825 23.5661 7.23275 23.6339L7.2325 23.6336ZM7.828 24.5029C7.7355 24.5674 7.584 24.5071 7.4905 24.3729C7.398 24.2384 7.398 24.0771 7.493 24.0129C7.58625 23.9484 7.7355 24.0066 7.8305 24.1396C7.9225 24.2759 7.9225 24.4374 7.828 24.5029ZM8.64325 25.3431C8.56075 25.4344 8.38425 25.4099 8.25525 25.2856C8.1235 25.1639 8.08675 24.9906 8.1695 24.8996C8.2535 24.8081 8.43075 24.8336 8.5605 24.9571C8.69225 25.0786 8.732 25.2521 8.64375 25.3429L8.64325 25.3431ZM9.76825 25.8309C9.7315 25.9491 9.562 26.0029 9.39075 25.9524C9.22 25.9006 9.10825 25.7624 9.14325 25.6429C9.17825 25.5236 9.349 25.4679 9.52125 25.5216C9.692 25.5731 9.80375 25.7106 9.76825 25.8309ZM11.004 25.9211C11.0083 26.0456 10.8633 26.1486 10.684 26.1511C10.5033 26.1554 10.357 26.0544 10.3553 25.9319C10.3553 25.8061 10.4973 25.7044 10.6778 25.7009C10.857 25.6976 11.0043 25.7976 11.0043 25.9209L11.004 25.9211ZM12.1535 25.7256C12.175 25.8469 12.0503 25.9716 11.872 26.0049C11.697 26.0374 11.5345 25.9619 11.512 25.8416C11.4905 25.7171 11.6175 25.5924 11.7925 25.5601C11.971 25.5294 12.131 25.6024 12.1535 25.7256Z" fill="#181616"/>
</svg>
