<svg width="32" height="32" viewBox="0 0 32 32" fill="none" xmlns="http://www.w3.org/2000/svg">
<path d="M11.11 25.1574C10.0525 24.3249 8.92502 23.5274 8.15252 22.4049C6.53002 20.4249 5.28002 18.1299 4.42752 15.7199C3.91002 14.1524 3.73502 12.4724 3.06752 10.9649C2.37252 9.86995 3.18752 8.67495 4.38502 8.32745C4.91752 8.22495 5.85752 7.71995 4.72502 8.08245C3.71002 8.82745 3.61252 7.40495 4.65252 7.31495C5.36252 7.21995 5.62502 6.63995 5.38252 6.11495C4.62002 5.61745 7.23252 5.06995 5.91752 4.32745C4.54752 2.84995 7.83252 2.56495 7.02252 4.24495C6.83002 5.53495 9.31752 4.00745 8.74002 5.49745C9.32752 6.21245 10.94 5.65995 10.8975 6.66495C11.7525 6.72495 12.0475 7.44245 12.8475 7.49745C13.68 7.87245 15.1875 8.16995 15.47 9.10745C14.645 9.75995 12.7325 7.75745 12.6425 9.56745C12.8925 12.2399 12.8275 14.9924 13.805 17.5374C14.2675 19.0774 15.3875 20.2899 16.4 21.4899C17.37 22.6649 18.68 23.4924 20.02 24.1899C21.1925 24.7424 22.4575 25.1099 23.7375 25.3399C24.255 24.9424 25.1725 23.4699 25.98 24.0899C26.02 24.7899 24.375 25.5499 25.9025 25.4749C26.8 25.2049 27.4225 26.1674 28.1625 25.2974C28.8425 26.1049 30.9925 24.7824 30.5075 26.4299C29.8525 26.8524 28.8975 26.5974 28.24 27.1799C27.1575 26.6399 26.2975 27.6624 25.1 27.5349C23.77 27.7724 22.4175 27.8699 21.0675 27.8699C18.855 27.695 16.595 27.6224 14.4925 26.8524C13.3075 26.5075 12.15 25.8324 11.11 25.1574ZM12.9775 25.9674C14.135 26.4674 15.2675 26.9949 16.535 27.1549C18.5475 27.4349 20.6275 27.8649 22.6475 27.4724C21.7325 27.0599 20.7875 27.6324 19.8775 27.1774C18.785 27.4124 17.6125 27.1174 16.5025 26.9724C15.24 26.4099 13.8775 26.0224 12.695 25.2924C11.2175 24.7524 13.46 25.9849 13.8575 26.0849C14.78 26.6099 12.8425 25.8149 12.5675 25.5974C11.795 25.1624 11.695 25.2549 12.49 25.6949C12.65 25.7874 12.81 25.8874 12.9775 25.9674ZM10.775 24.4099C11.8975 24.8249 10.77 23.6199 10.2575 23.6899C10.03 23.2949 9.38752 23.0449 9.84002 22.8324C9.02502 23.1149 8.98502 21.7575 8.60252 21.9499C7.74002 21.6775 8.26752 20.7125 7.24002 20.1199C7.14752 19.4949 6.22002 18.9549 5.92502 18.0124C5.79502 17.5299 4.87752 16.1474 5.44002 17.4349C5.92002 18.6749 6.76252 19.7374 7.46502 20.7974C8.01002 21.8074 8.65502 22.8624 9.64502 23.4924C9.98002 23.8174 10.3025 24.3099 10.775 24.4099ZM7.54252 20.8624C7.58252 20.6924 7.74752 21.2274 7.54252 20.8624V20.8624ZM12.1175 24.9074C11.76 24.7674 12.3675 24.7974 12.1175 24.9074V24.9074ZM12.7275 25.1299C12.45 25.3024 12.665 24.8224 12.7275 25.1299V25.1299ZM13.49 25.4474C12.93 25.2299 13.8525 25.1024 13.49 25.4474V25.4474ZM14.795 26.1749C14.09 26.0524 15.0175 25.8499 14.795 26.1749V26.1749ZM12.2875 24.4274C11.56 24.4224 12.85 24.0624 12.2875 24.4274V24.4274ZM12.86 24.7124C12.655 24.7974 12.8425 24.5199 12.86 24.7124V24.7124ZM15.7175 26.4949C16.1775 26.785 18.4 27.1299 17.0075 26.6149C16.775 26.6649 14.425 25.9499 15.7175 26.4949ZM11.18 22.9624C10.4675 22.7499 11.135 22.7699 11.18 22.9624V22.9624ZM12.51 23.7374C11.7925 23.5524 12.8575 23.4974 12.51 23.7374V23.7374ZM13.63 24.4249C12.8225 24.2374 14.125 24.2374 13.63 24.4249V24.4249ZM10.6375 22.3724C11.1775 22.7849 12.8125 22.4249 11.4625 22.1249C10.85 21.7974 9.46502 21.5749 10.4075 22.3224L10.6375 22.3724ZM14.3875 24.6624C13.445 24.4424 14.6125 24.2799 14.3875 24.6624V24.6624ZM13.2475 23.7549C14.565 24.1274 12.14 22.9199 12.9225 23.6174L13.0975 23.6974L13.2475 23.7549ZM15.5325 25.0749C14.405 24.9049 16.78 25.0875 15.5325 25.0749V25.0749ZM10.1575 21.6499C9.85002 21.6699 10.11 21.4174 10.1575 21.6499V21.6499ZM17.6425 26.2599C17.2375 26.5724 17.6775 25.8399 17.6425 26.2599V26.2599ZM12.2875 22.9549C11.8975 22.9449 12.2125 22.7349 12.2875 22.9549V22.9549ZM10.2775 21.5049C9.29502 21.1899 10.9925 21.4624 10.2775 21.5049V21.5049ZM7.89252 19.9649C7.11252 19.3474 7.80252 19.6199 7.89252 19.9649V19.9649ZM14.15 23.9349C14.02 23.7849 14.0875 23.9674 14.15 23.9349V23.9349ZM18.045 26.3249C17.8325 26.4124 18.0325 26.0974 18.045 26.3249V26.3249ZM13.805 23.5799C13.195 23.4899 13.875 23.2849 13.805 23.5799V23.5799ZM10.905 21.7399C10.05 21.3799 11.4375 21.6824 10.905 21.7399V21.7399ZM15.8125 24.7899C15.0025 24.6299 16.6425 24.4599 15.8125 24.7899V24.7899ZM13.26 23.0574C14.2175 23.1799 12.12 22.4049 13.05 22.9874L13.26 23.0574ZM16.5875 25.1049C17.4825 24.5699 17.1875 26.3574 18.105 25.2549C19.01 24.5949 17.3225 26.0724 18.4375 25.3724C19.245 24.8324 20.435 25.6274 21.1875 25.8874C21.7275 25.8599 22.255 26.3549 22.81 26.0549C23.8775 25.7674 20.72 25.6274 21.5475 25.1174C20.57 25.4024 19.8475 24.7774 19.3675 24.1524C18.27 23.8999 17.0025 23.3399 16.455 22.3674C16.2325 22.0024 16.7775 22.4199 16.2625 21.8224C15.6025 21.2349 15.2725 20.5674 14.83 19.8524C14.3 19.57 14.2375 18.7374 14.185 19.8249C14.19 19.1399 13.545 18.6774 13.3875 18.8699C13.385 18.2099 14.0775 18.5399 13.5925 18.0524C13.4875 17.3674 13.145 16.6549 13.0425 15.8824C12.8825 15.5099 13.02 14.7124 12.495 15.5549C12.305 16.4474 12.4325 14.4599 12.73 15.1149C13.12 14.4474 12.59 14.5249 12.5675 14.6174C12.8225 14.0524 12.7275 13.2524 12.5 13.5574C12.635 12.9599 12.715 11.3574 12.2975 11.6424C12.55 11.0174 12.7775 8.78245 11.68 9.63495C11.235 9.64245 10.4675 9.79495 10.1025 9.97745C11.2425 10.6049 9.98752 10.2049 9.52252 10.1049C9.46252 10.6874 9.00252 10.4349 8.42752 10.4399C9.34502 10.5524 7.98002 11.3774 7.45502 11.0574C6.77002 11.3849 8.04502 12.1999 7.46752 12.4524C7.53752 12.8324 6.42002 12.3149 6.50752 13.1924C5.84502 12.9124 6.41752 14.2324 6.74752 13.7874C7.87502 14.0924 7.54252 14.7899 7.57002 15.4499C7.38502 15.8349 6.66252 14.5449 7.41002 14.6049C6.82002 13.6474 6.75752 14.2599 6.27002 14.7024C6.15752 14.7349 7.51752 15.3349 6.66252 15.6324C7.41502 15.7499 7.43752 16.4074 7.59002 16.8224C8.04252 17.2924 7.95002 16.3024 8.49002 16.8674C8.14752 16.3624 6.67752 15.4474 7.86002 15.7399C7.85252 15.2324 7.64502 14.8224 8.01002 14.8324C8.37002 14.1824 7.63252 16.4374 8.44252 15.6099C8.66752 15.5124 8.72252 14.9599 9.12502 15.6624C9.71002 16.2374 9.33752 16.6549 8.51002 16.1274C8.65752 16.6299 9.61502 16.8074 9.43502 17.5924C9.62502 18.2824 9.89252 18.0274 10.125 17.9874C10.3075 18.6574 10.41 18.1649 10.42 17.8449C11.255 18.0249 11.06 18.5174 11.32 18.8624C11.895 19.1224 10.4975 17.1024 11.485 18.2549C12.525 19.1924 11.875 19.5849 10.9425 19.4349C11.5325 19.3874 11.7225 20.2324 12.46 20.2024C13.1325 20.5224 13.59 21.7524 12.43 21.2399C12.0275 20.8774 10.6025 20.4299 11.7675 21.1199C12.8425 21.6174 13.695 21.9149 14.7325 22.5399C15.4725 23.07 15.795 23.6749 16.075 23.7949C15.4525 24.0924 14.1975 23.5574 15.13 23.3924C14.5475 23.2874 13.895 22.9924 14.4525 23.7174C14.925 24.1124 16.13 24.0724 16.3475 24.1149C16.165 24.5174 15.85 24.5499 16.355 24.5799C15.7925 24.8849 16.535 24.9324 16.5875 25.1049ZM15.4375 21.8549C15.095 21.4974 15.0075 20.8274 15.3775 21.4099C15.565 21.4849 15.985 22.5049 15.4375 21.8549ZM19.185 24.2349C19.19 24.3974 19.3975 24.2199 19.185 24.2349V24.2349ZM14.8975 20.9774C14.8825 20.4349 15.02 21.3949 14.8975 20.9774V20.9774ZM14.525 20.4749C14.0925 19.6449 15.0675 20.7124 14.525 20.4749V20.4749ZM10.01 17.3599C10.135 17.7924 10.2625 17.2924 10.01 17.3599V17.3599ZM13.6025 19.3074C13.7575 18.7249 13.785 19.7974 13.6025 19.3074V19.3074ZM11.065 17.5424C10.8875 17.2199 11.44 17.8449 11.065 17.5424V17.5424ZM13.2425 18.2399C12.835 17.3274 13.5325 17.7399 13.3325 18.3899L13.2425 18.2399ZM9.48752 15.7374C9.30502 15.4374 9.00502 14.5574 9.10002 14.2899C9.18752 14.7274 10.03 16.1724 9.51252 14.8874C8.94252 13.8124 10.195 15.2374 10.325 15.5049C10.385 15.7724 9.97252 15.4324 10.2525 16.0574C9.74252 15.3449 9.95252 16.4524 9.48752 15.7374ZM8.32752 14.9374C8.37502 14.2399 8.59252 15.4149 8.32752 14.9374V14.9374ZM8.84752 15.1174C9.09752 14.5899 9.27002 15.8499 8.84752 15.1174V15.1174ZM7.59252 14.1449C7.16002 13.7149 6.84752 13.3199 7.61252 13.8774C7.90752 13.8899 6.95752 12.9774 7.68252 13.5874C8.44752 13.7274 8.06002 14.8399 7.59252 14.1449ZM8.25252 14.1274C8.38502 14.3724 8.50252 13.8799 8.25252 14.1274V14.1274ZM8.65752 14.2574C8.27752 13.5449 9.12002 14.5574 8.65752 14.2574V14.2574ZM7.85252 13.4874C6.59752 12.3699 9.43002 14.0724 8.05752 13.6949L7.85252 13.4874ZM11.45 15.5774C10.905 15.2524 11.305 13.2824 11.49 14.6299C12.0175 14.4599 11.46 15.3249 11.855 15.3174C11.795 15.8624 11.6175 16.0599 11.45 15.5774ZM12.7825 16.3649C12.835 15.7699 12.895 16.7699 12.7825 16.3649V16.3649ZM12.55 16.1349C12.5575 16.4349 12.61 15.8824 12.55 16.1349V16.1349ZM8.09752 13.1199C7.29002 12.0074 10.4425 14.2474 8.61502 13.4024C8.42252 13.3499 8.19252 13.3324 8.09752 13.1199ZM10.6625 14.4774C10.585 13.5399 10.8325 14.6324 10.6625 14.4774V14.4774ZM12.6075 15.7274C12.62 16.0799 12.7575 15.1924 12.6075 15.7274V15.7274ZM8.22252 12.6949C8.70252 12.5924 10.21 13.5374 8.82502 12.9649C8.67002 12.7924 8.34252 12.8699 8.22252 12.6949ZM12.34 14.7474C12.39 13.7874 12.6275 14.1749 12.3425 14.8849L12.34 14.7474ZM8.57752 12.3599C8.77252 12.0724 8.05752 11.0649 8.68002 11.9974C8.95002 12.2099 9.45752 12.3549 9.00752 12.4449C9.71752 13.0699 8.83752 12.6149 8.57752 12.3599ZM12.1375 14.4474C12.255 15.0874 12.2725 13.3549 12.1375 14.4474V14.4474ZM8.17002 11.3524C8.25002 11.5499 8.32002 11.2874 8.17002 11.3524V11.3524ZM9.09752 11.9049C9.33752 11.4024 9.54002 12.4624 9.09752 11.9049V11.9049ZM11.715 13.3599C11.715 13.1674 11.765 13.6399 11.715 13.3599V13.3599ZM11.565 13.0249C11.2025 12.1274 11.9025 13.4999 11.565 13.0249V13.0249ZM11.3425 12.4374C11.28 12.0674 11.55 12.9024 11.3425 12.4374V12.4374ZM11.705 11.8474C11.455 11.4074 12.02 9.90995 12.0825 10.8399C11.82 11.5624 12.0075 11.9674 12.19 10.9974C12.53 10.2324 12.1175 12.5024 11.705 11.8474ZM12.0775 9.61995C12.1025 9.78245 12.1875 9.48745 12.0775 9.61995V9.61995ZM11.455 21.8999C11.3075 21.7699 11.4725 21.9824 11.455 21.8999V21.8999ZM12.7375 22.5499C13.4525 22.7349 13.4475 22.4399 12.8025 22.3524C12.455 22.0299 11.36 21.6874 12.34 22.3124C12.4075 22.4749 12.6125 22.4699 12.7375 22.5499ZM10.2025 20.8649C10.595 21.1599 11.685 21.695 10.7625 20.9774C11.0725 20.6174 10.1675 20.4249 10.4675 20.1824C9.70252 19.7149 9.86502 19.7574 10.4 19.7724C9.48252 19.3624 10.5325 19.3924 10.4825 19.1824C10.1275 19.1124 8.72502 18.5574 9.55002 19.2274C8.71002 18.7999 9.35002 19.3874 9.09502 19.3249C8.23502 19.0899 9.86002 19.9799 8.96002 19.7574C9.45252 20.1474 10.285 20.7574 9.16752 20.1699C9.02502 20.3824 9.97002 20.7049 10.2025 20.8649ZM11.545 21.6374C10.745 20.9924 13.1775 22.1624 11.545 21.6374V21.6374ZM18.42 25.7999C18.195 26.0774 18.44 25.4749 18.42 25.7999V25.7999ZM19.125 26.0974C19.5025 25.7324 19.14 26.6799 19.75 26.0074C19.7575 25.5274 19.7325 25.2424 19.05 25.8274C18.8625 25.9324 18.7775 26.3749 19.125 26.0974ZM7.91252 19.0549C7.10002 18.6024 7.79502 18.5999 7.91252 19.0549V19.0549ZM8.66502 19.5499C7.66502 19.1299 8.38502 19.0849 8.66502 19.5499V19.5499ZM12.9575 22.1374C13.3775 22.5099 14.8825 22.41 13.465 22.1824C13.2575 21.8724 12.135 21.9474 12.9575 22.1374ZM18.8575 25.7799C18.2325 26.0224 19.5 25.2399 18.8575 25.7799V25.7799ZM20.1975 26.7024C19.92 26.7774 20.2025 26.5299 20.1975 26.7024V26.7024ZM20.2 26.4599C19.5075 26.5049 20.915 25.7024 20.2 26.4599V26.4599ZM6.05502 17.5024C5.44752 16.6349 5.67752 16.2449 5.09002 15.5349C4.97752 14.9924 4.08252 13.7624 4.62752 15.0649C5.12502 15.8274 5.27252 17.0074 6.05502 17.5024ZM19.975 26.2199C19.4375 25.8499 21.29 25.3699 19.975 26.2199V26.2199ZM20.9775 26.6124C20.5625 26.4949 21.6375 26.0474 20.9775 26.6124V26.6124ZM7.68752 18.0949C7.20252 18.0599 7.87752 17.8149 7.68752 18.0949V18.0949ZM20.77 26.3424C21.4075 25.9324 20.6225 25.9949 20.655 26.3799L20.77 26.3424ZM12.125 20.8949C11.7875 20.9174 12.1025 20.6174 12.125 20.8949V20.8949ZM12.66 21.2024C12.3975 21.2549 12.4875 20.8574 12.66 21.2024V21.2024ZM21.7925 26.6199C22.61 26.0299 21.2975 26.5074 21.6225 26.7324L21.7925 26.6199ZM21.4775 26.4699C20.7775 26.7174 22.145 25.9124 21.4775 26.4699V26.4699ZM23.075 27.5324C22.5325 27.4374 23.5225 27.2349 23.075 27.5324V27.5324ZM8.09752 17.8924C8.69502 18.0274 10.4875 19.3649 9.43002 17.9849C8.88752 17.8249 9.21252 16.4999 8.66002 16.7349C9.03002 17.3549 8.96502 17.6174 8.18502 17.2274C7.20752 16.7499 7.63502 17.4624 7.82752 17.6599C7.56752 17.7224 8.17502 17.8874 8.09752 17.8924ZM5.37252 15.7399C5.48002 15.2974 4.38502 13.3024 4.85502 14.7399C5.02502 15.0424 5.00752 15.6124 5.37252 15.7399ZM10.375 18.8249C10.0675 18.5674 10.36 18.7874 10.375 18.8249V18.8249ZM11.1325 19.0024C10.295 18.8099 11.1325 18.5324 11.1325 19.0024V19.0024ZM17.7075 23.1449C17.2125 23.1399 17.5825 22.8249 17.7075 23.1449V23.1449ZM18.0225 23.3774C17.8425 23.4124 17.9775 23.1974 18.0225 23.3774V23.3774ZM20.63 25.0174C20.3175 24.9949 20.88 24.8324 20.63 25.0174V25.0174ZM6.73252 16.0874C5.96502 15.8899 7.45002 15.8099 6.73252 16.0874V16.0874ZM17.13 22.6374C16.6725 22.7524 17.12 22.1724 17.13 22.6374V22.6374ZM6.45002 15.4274C6.02252 15.3249 6.91002 15.2724 6.45002 15.4274V15.4274ZM7.78502 16.0749C7.64502 16.1324 7.77752 15.9224 7.78502 16.0749V16.0749ZM24.09 26.0724C24.6825 25.9524 26.0325 26.3749 26.25 25.9149C25.53 25.8974 23.7625 25.4074 23.68 26.0299L23.8375 26.0549L24.09 26.0724ZM8.21002 16.1824C7.84502 16.1649 8.22252 15.7124 8.21002 16.1824V16.1824ZM4.69752 13.7449C4.09002 13.6099 4.53752 12.8499 4.69752 13.7449V13.7449ZM5.53502 13.9549C4.76752 13.6974 5.54502 13.6674 5.53502 13.9549V13.9549ZM6.01252 14.1899C5.87502 14.0799 5.90502 14.3324 6.01252 14.1899V14.1899ZM9.02752 16.1224C8.69002 16.0274 9.17002 15.9924 9.02752 16.1224V16.1224ZM5.69502 13.6599C4.72502 13.5599 5.61252 12.9824 5.69502 13.6599V13.6599ZM3.97752 12.5449C3.81002 12.6624 3.95252 12.2324 3.97752 12.5449V12.5449ZM4.23252 12.3524C4.01252 12.3999 4.19002 11.9824 4.23252 12.3524V12.3524ZM5.64502 13.1949C6.24252 12.9599 4.55752 12.7099 5.52252 13.1499L5.64502 13.1949ZM24.5425 24.8674C24.0575 24.7599 24.925 24.5174 24.5425 24.8674V24.8674ZM26.825 26.0524C26.44 26.1099 26.9775 25.5999 26.825 26.0524V26.0524ZM5.78752 12.4549C5.31502 12.5424 5.85252 12.0174 5.78752 12.4549V12.4549ZM3.78002 11.1099C3.67252 10.4924 3.68752 9.40495 4.72002 9.77245C3.34252 10.0474 5.67502 11.4849 5.38002 10.3499C5.96002 10.3774 6.51252 10.0074 6.21002 10.5699C7.35252 10.4449 8.14252 9.45495 9.24502 9.59245C10.105 9.47745 11.0425 9.39245 11.9675 9.04745C12.7275 8.99245 13.46 8.17245 13.045 7.68745C12.0075 7.59995 10.92 7.72995 9.77502 7.95745C8.50502 8.22245 7.35002 8.72245 6.06752 8.93995C4.81752 9.10745 6.31752 9.40245 5.96002 9.46745C5.30752 9.69245 6.73752 9.84745 5.87502 10.0849C5.34252 9.98245 4.78752 9.79995 5.01502 9.23995C3.81752 9.39495 2.76502 9.89245 3.71252 11.1099H3.78002ZM6.66502 9.63995C6.94502 8.60495 8.16752 10.4899 7.12502 9.77745C7.00002 9.68245 6.79502 9.60745 6.66502 9.63995ZM6.72002 9.13745C6.93502 9.30745 7.12502 8.83745 6.72002 9.13745V9.13745ZM7.23502 9.14745C7.27252 8.67245 8.41252 9.39995 7.42252 9.31745L7.23502 9.14745ZM7.93752 8.86245C8.01252 9.12995 8.19502 8.56245 7.93752 8.86245V8.86245ZM8.11752 8.74245C8.54502 8.22745 10.54 8.41495 9.08002 8.69245C8.69002 8.39745 8.39002 8.86745 8.11752 8.74245ZM10.7225 8.34245C10.6575 6.93745 12.0175 8.83995 10.7225 8.34245V8.34245ZM11.4625 8.33745C11.7325 7.62995 12.5125 8.05245 11.5875 8.19495C11.6075 8.26995 11.56 8.55995 11.4625 8.33745ZM5.49752 12.0924C4.64002 11.6624 6.30502 11.5974 5.49752 12.0924V12.0924ZM6.09502 12.2574C5.48002 12.1349 6.37752 11.9574 6.09502 12.2574V12.2574ZM4.33502 11.0099C3.79002 10.8749 4.79752 10.6549 4.33502 11.0099V11.0099ZM28.1725 25.9224C27.82 26.1074 28.185 25.5099 28.1725 25.9224V25.9224ZM25.75 24.2699C25.44 24.3099 25.82 23.7949 25.75 24.2699V24.2699ZM28.84 26.0824C29.485 26.0849 30.795 25.8824 29.39 25.8824C29.17 25.9149 28.1075 25.9099 28.84 26.0824ZM6.62002 11.9674C7.14252 11.9324 7.43752 11.3924 6.51752 11.4224C5.09502 11.2749 7.77252 11.9099 6.33502 11.7274C6.14252 11.8549 6.60752 12.0024 6.62002 11.9674ZM7.08002 12.1999C6.91752 12.3774 7.02502 11.8649 7.08002 12.1999V12.1999ZM7.62502 10.7449C7.31002 10.6699 7.85002 10.4649 7.62502 10.7449V10.7449ZM5.88752 7.84495C6.82002 7.52745 8.09252 7.17245 8.53252 7.99995C8.08502 7.46245 8.35252 6.92995 8.77502 7.71995C9.37252 8.51745 9.67252 7.35745 9.28252 7.08995C9.72502 7.63995 10.23 7.89995 9.58002 7.12495C10.2875 6.27495 8.16502 7.23745 7.68252 7.22745C7.45252 7.32995 5.28752 7.77745 5.88752 7.84495ZM6.43502 6.79995C6.96752 6.39995 8.27252 7.03995 7.43502 6.40245C7.35252 6.32745 5.59752 6.88495 6.43502 6.79995ZM8.37252 6.87995C8.99502 6.89495 8.10502 6.04495 8.84502 6.42995C8.72252 6.03245 7.98252 5.95745 7.62002 5.79995C7.41502 6.16245 8.03502 6.88495 8.37252 6.87995ZM6.77502 5.11995C6.39752 5.26995 6.99002 4.82995 6.77502 5.11995V5.11995ZM7.56502 5.30995C8.56752 5.17745 7.31002 4.87995 7.36252 5.29995L7.56502 5.30995ZM6.08752 4.15495C5.38252 3.23245 7.41502 4.30995 6.69752 3.34495C6.09502 2.86495 5.51502 3.88495 6.08752 4.15495ZM15.14 9.02995C15.4625 8.45745 13.805 8.25745 14.9225 8.82745C15.0275 8.86245 15.0025 9.06995 15.14 9.02995Z" fill="#010101"/>
</svg>
