<svg width="33" height="32" viewBox="0 0 33 32" fill="none" xmlns="http://www.w3.org/2000/svg">
<g clip-path="url(#clip0_952_513)">
<path d="M7.4436 20.1798C7.4436 22.0123 5.9491 23.5091 4.11635 23.5091C2.2836 23.5091 0.787354 22.0123 0.787354 20.1798C0.787354 18.3473 2.2841 16.8506 4.1166 16.8506H7.44385L7.4436 20.1798ZM9.12085 20.1798C9.12085 18.3473 10.6176 16.8506 12.4501 16.8506C14.2826 16.8506 15.7794 18.3471 15.7794 20.1798V28.5136C15.7794 30.3461 14.2829 31.8428 12.4501 31.8428C10.6176 31.8428 9.12085 30.3461 9.12085 28.5136V20.1798Z" fill="#DE1C59"/>
<path d="M12.4501 6.81372C10.6176 6.81372 9.12085 5.31922 9.12085 3.48647C9.12085 1.65372 10.6176 0.157471 12.4501 0.157471C14.2826 0.157471 15.7794 1.65422 15.7794 3.48672V6.81397L12.4501 6.81372ZM12.4501 8.49097C14.2826 8.49097 15.7794 9.98772 15.7794 11.8202C15.7794 13.6527 14.2829 15.1495 12.4501 15.1495H4.11635C2.28385 15.1495 0.787354 13.653 0.787354 11.8202C0.787354 9.98772 2.2841 8.49097 4.1166 8.49097H12.4501Z" fill="#35C5F0"/>
<path d="M25.8162 11.8202C25.8162 9.98772 27.3107 8.49097 29.1434 8.49097C30.9762 8.49097 32.4727 9.98772 32.4727 11.8202C32.4727 13.6527 30.9759 15.1495 29.1434 15.1495H25.8162V11.8202ZM24.1389 11.8202C24.1389 13.6527 22.6422 15.1495 20.8097 15.1495C18.9772 15.1495 17.4804 13.653 17.4804 11.8202V3.48647C17.4804 1.65397 18.9769 0.157471 20.8097 0.157471C22.6422 0.157471 24.1389 1.65422 24.1389 3.48672V11.8202Z" fill="#2EB57D"/>
<path d="M20.8097 25.1863C22.6422 25.1863 24.1389 26.6808 24.1389 28.5136C24.1389 30.3463 22.6422 31.8428 20.8097 31.8428C18.9772 31.8428 17.4804 30.3461 17.4804 28.5136V25.1863H20.8097ZM20.8097 23.5091C18.9772 23.5091 17.4804 22.0123 17.4804 20.1798C17.4804 18.3473 18.9769 16.8506 20.8097 16.8506H29.1434C30.9759 16.8506 32.4727 18.3471 32.4727 20.1798C32.4727 22.0123 30.9759 23.5091 29.1434 23.5091H20.8097Z" fill="#EBB02E"/>
</g>
<defs>
<clipPath id="clip0_952_513">
<rect width="32" height="32" fill="white" transform="translate(0.629883)"/>
</clipPath>
</defs>
</svg>
