<svg width="32" height="32" viewBox="0 0 32 32" fill="none" xmlns="http://www.w3.org/2000/svg">
<g clip-path="url(#clip0_952_139)">
<path d="M6.81775 0.0274338C6.76775 0.0469338 5.36275 0.847434 3.696 1.80543C1.6765 2.96643 0.639251 3.57793 0.583751 3.63543C0.536251 3.69168 0.498751 3.75593 0.474251 3.82543C0.432501 3.96643 0.429501 24.5717 0.471751 24.7199C0.487001 24.7774 0.536751 24.8619 0.581751 24.9084C0.690751 25.0234 12.7478 31.9559 12.8943 31.9894C12.9623 32.0057 13.0385 32.0029 13.1143 31.9819C13.2788 31.9407 25.3043 25.0234 25.4113 24.9104C25.455 24.8617 25.505 24.7774 25.5213 24.7202C25.5423 24.6519 25.55 23.5752 25.55 21.3064V17.9914L28.4815 16.3077C31.2455 14.7184 31.4148 14.6189 31.4858 14.5099L31.5583 14.3924V10.8217C31.5583 6.93468 31.5658 7.15343 31.412 7.01293C31.3708 6.97643 29.9625 6.15468 28.2795 5.18543L25.2225 3.42743H24.8828L21.892 5.14493C20.2455 6.09193 18.846 6.90168 18.7778 6.94568C18.7098 6.99068 18.6285 7.07368 18.5953 7.13393L18.5348 7.23818L18.5213 10.6019L18.5093 13.9669L16.0395 15.3894C14.681 16.1704 13.5503 16.8169 13.5263 16.8229C13.4825 16.8352 13.4795 16.5149 13.4795 10.3314V3.82318L13.4145 3.71143C13.333 3.57518 13.6985 3.79243 10.0285 1.68293C6.95075 -0.0870662 7.02475 -0.0500662 6.81775 0.0274338ZM9.647 2.60418C10.9345 3.34293 11.988 3.95418 11.988 3.96168C11.988 3.96943 10.859 4.62193 9.47925 5.41493L6.969 6.85618L4.46325 5.41518C3.0865 4.62193 1.95825 3.96943 1.95825 3.96168C1.95825 3.95393 3.0845 3.30168 4.4615 2.51043L6.96125 1.07243L7.13375 1.16643C7.97308 1.6431 8.81083 2.12235 9.647 2.60418ZM27.564 5.91943C28.9195 6.69993 30.041 7.34493 30.0515 7.35543C30.08 7.38118 25.108 10.2392 25.04 10.2362C24.972 10.2342 20.0613 7.40243 20.0633 7.36793C20.0658 7.32868 25.0065 4.48618 25.0565 4.49393C25.0793 4.49943 26.2083 5.14143 27.564 5.91943ZM4.075 6.33193L6.4645 7.70768L6.47825 14.5194L6.49075 21.3324L6.549 21.4244C6.5795 21.4729 6.637 21.5392 6.679 21.5697C6.7185 21.5984 8.04825 22.3562 9.6335 23.2507L12.5135 24.8772V27.7589C12.5135 29.3404 12.5028 30.6379 12.4893 30.6379C12.479 30.6379 9.98925 29.2132 6.95825 27.4689L1.44825 24.3002L1.44075 14.5587L1.436 4.82018L1.5585 4.88793C1.62925 4.92543 2.76025 5.57493 4.07475 6.33168L4.075 6.33193ZM12.5135 11.1269V17.4042L12.4168 17.4674C12.2855 17.5504 7.5 20.3012 7.48375 20.3012C7.47625 20.3012 7.47025 17.4672 7.47025 14.0029L7.47325 7.70743L9.97325 6.26943C11.348 5.47818 12.4818 4.83618 12.4953 4.84093C12.505 4.84693 12.5135 7.67593 12.5135 11.1269ZM22.051 9.68318L24.5568 11.1239V13.9799C24.5568 16.6894 24.554 16.8349 24.5128 16.8192C24.486 16.8089 23.3523 16.1592 21.992 15.3757L19.5145 13.9532V11.0982C19.5145 9.52643 19.5225 8.24218 19.53 8.24218C19.5408 8.24218 20.6743 8.89018 22.051 9.68318ZM30.592 11.0799C30.592 12.6434 30.5815 13.9329 30.571 13.9454C30.553 13.9742 25.597 16.8299 25.5655 16.8299C25.5578 16.8299 25.55 15.5462 25.55 13.9742V11.1192L28.05 9.68018C29.4268 8.89018 30.5605 8.24218 30.571 8.24218C30.5843 8.24218 30.592 9.51843 30.592 11.0799ZM23.9983 17.7332L13.0013 24.0099L8.014 21.1732C8.014 21.1732 19 14.8192 19.044 14.8357L23.9983 17.7332ZM24.552 21.4399L24.5435 24.3004L19.0365 27.4694C16.0065 29.2134 13.516 30.6382 13.5035 30.6382C13.4903 30.6382 13.4798 29.4737 13.4798 27.7592V24.8774L18.9998 21.7294C22.0328 19.9987 24.525 18.5819 24.5383 18.5789C24.549 18.5789 24.5538 19.8659 24.5518 21.4397L24.552 21.4399Z" fill="#F0513F"/>
</g>
<defs>
<clipPath id="clip0_952_139">
<rect width="32" height="32" fill="white"/>
</clipPath>
</defs>
</svg>
