<svg width="33" height="32" viewBox="0 0 33 32" fill="none" xmlns="http://www.w3.org/2000/svg">
<path d="M27.6356 4H16.0811C16.0811 6.88 18.4121 9.212 21.2929 9.212H23.4179V11.2685C23.4179 14.1485 25.7499 16.4805 28.6299 16.4805V4.99425C28.6297 4.73062 28.5249 4.47784 28.3384 4.29143C28.152 4.10501 27.8992 4.0002 27.6356 4Z" fill="#2684FF"/>
<path d="M21.9102 9.76002H10.3554C10.3554 12.6398 12.6867 14.9718 15.5664 14.9718H17.6924V17.0283C17.6924 19.9083 20.0244 22.2403 22.9044 22.2403V10.754C22.904 10.4904 22.7991 10.2378 22.6128 10.0514C22.4264 9.86504 22.1737 9.76041 21.9102 9.76002Z" fill="url(#paint0_linear_952_507)"/>
<path d="M16.1846 15.5195H4.62988C4.62988 18.4005 6.96088 20.7315 9.84188 20.7315H11.9669V22.789C11.9669 25.669 14.2989 28 17.1786 28V16.5148C17.1784 16.2511 17.0736 15.9984 16.8873 15.8119C16.7009 15.6253 16.4483 15.5201 16.1846 15.5195Z" fill="url(#paint1_linear_952_507)"/>
<defs>
<linearGradient id="paint0_linear_952_507" x1="22.6639" y1="9.77302" x2="17.7479" y2="14.842" gradientUnits="userSpaceOnUse">
<stop offset="0.176" stop-color="#0052CC"/>
<stop offset="1" stop-color="#2684FF"/>
</linearGradient>
<linearGradient id="paint1_linear_952_507" x1="17.2709" y1="15.564" x2="11.5869" y2="21.094" gradientUnits="userSpaceOnUse">
<stop offset="0.176" stop-color="#0052CC"/>
<stop offset="1" stop-color="#2684FF"/>
</linearGradient>
</defs>
</svg>
