<svg width="33" height="32" viewBox="0 0 33 32" fill="none" xmlns="http://www.w3.org/2000/svg">
<path d="M16.4776 3.06197C15.4221 3.06697 14.4146 3.15672 13.5276 3.31372C10.9151 3.77522 10.4411 4.74122 10.4411 6.52297V8.87572H16.6144V9.65997H8.12413C6.33013 9.65997 4.75913 10.7382 4.26763 12.7902C3.70063 15.1415 3.67563 16.609 4.26763 19.0642C4.70638 20.892 5.75438 22.194 7.54863 22.194H9.67138V19.3735C9.67138 17.3357 11.4341 15.5385 13.5279 15.5385H19.6941C21.4106 15.5385 22.7806 14.125 22.7806 12.4015V6.52322C22.7806 4.84997 21.3691 3.59322 19.6941 3.31397C18.6331 3.13747 17.5329 3.05722 16.4776 3.06197ZM13.1391 4.95422C13.7766 4.95422 14.2976 5.48347 14.2976 6.13447C14.2976 6.78272 13.7769 7.30697 13.1391 7.30697C12.4991 7.30697 11.9809 6.78272 11.9809 6.13447C11.9806 5.48347 12.4991 4.95422 13.1391 4.95422Z" fill="url(#paint0_linear_952_539)"/>
<path d="M23.5504 9.65992V12.4014C23.5504 14.5264 21.7484 16.3152 19.6939 16.3152H13.5276C11.8386 16.3152 10.4411 17.7609 10.4411 19.4524V25.3312C10.4411 27.0039 11.8956 27.9882 13.5276 28.4679C15.4816 29.0422 17.3556 29.1462 19.6939 28.4679C21.2479 28.0177 22.7804 27.1122 22.7804 25.3312V22.9782H16.6144V22.1937H25.8674C27.6614 22.1937 28.3304 20.9424 28.9544 19.0639C29.5989 17.1302 29.5711 15.2704 28.9544 12.7899C28.5109 11.0037 27.6641 9.65967 25.8674 9.65967L23.5504 9.65992ZM20.0821 24.5467C20.7224 24.5467 21.2406 25.0709 21.2406 25.7197C21.2406 26.3702 20.7221 26.8994 20.0821 26.8994C19.4446 26.8994 18.9239 26.3702 18.9239 25.7197C18.9239 25.0709 19.4446 24.5467 20.0821 24.5467Z" fill="url(#paint1_linear_952_539)"/>
<path opacity="0.444" d="M24.9571 29.8992C24.9571 30.7849 21.2531 31.5032 16.6844 31.5032C12.1154 31.5032 8.41138 30.7849 8.41138 29.8992C8.41138 29.0134 12.1151 28.2949 16.6844 28.2949C21.2531 28.2949 24.9571 29.0129 24.9571 29.8992Z" fill="url(#paint2_radial_952_539)"/>
<defs>
<linearGradient id="paint0_linear_952_539" x1="3.2141" y1="3.79762" x2="17.4525" y2="15.9401" gradientUnits="userSpaceOnUse">
<stop stop-color="#5A9FD4"/>
<stop offset="1" stop-color="#306998"/>
</linearGradient>
<linearGradient id="paint1_linear_952_539" x1="22.8096" y1="23.488" x2="17.7035" y2="16.3275" gradientUnits="userSpaceOnUse">
<stop stop-color="#FFD43B"/>
<stop offset="1" stop-color="#FFE873"/>
</linearGradient>
<radialGradient id="paint2_radial_952_539" cx="0" cy="0" r="1" gradientUnits="userSpaceOnUse" gradientTransform="translate(16.6509 29.8532) rotate(-90) scale(1.60458 7.05347)">
<stop stop-color="#B8B8B8" stop-opacity="0.498"/>
<stop offset="1" stop-color="#7F7F7F" stop-opacity="0"/>
</radialGradient>
</defs>
</svg>
