<svg width="31" height="32" viewBox="0 0 31 32" fill="none" xmlns="http://www.w3.org/2000/svg">
<g clip-path="url(#clip0_952_552)">
<path d="M11.0273 6.86561C6.85301 6.10532 3.55263 6.90107 2.23718 9.1794C1.25566 10.8795 1.53617 13.1337 2.9177 15.5431C2.94518 15.5928 2.98226 15.6365 3.02679 15.6717C3.07132 15.7069 3.12241 15.7329 3.17709 15.7482C3.23176 15.7635 3.28893 15.7677 3.34526 15.7607C3.40159 15.7537 3.45596 15.7355 3.50521 15.7073C3.55446 15.6791 3.5976 15.6413 3.63212 15.5963C3.66664 15.5512 3.69186 15.4997 3.7063 15.4448C3.72074 15.3899 3.72411 15.3327 3.71623 15.2765C3.70835 15.2203 3.68936 15.1662 3.66037 15.1174C2.41594 12.9469 2.17376 11.0014 2.97859 9.60748C4.07131 7.71488 7.0152 7.00512 10.8738 7.70786C10.9295 7.7187 10.9867 7.7184 11.0422 7.70696C11.0977 7.69552 11.1503 7.67319 11.1971 7.64124C11.2439 7.60929 11.2839 7.56837 11.3148 7.52085C11.3456 7.47333 11.3668 7.42015 11.3769 7.36441C11.3871 7.30866 11.3861 7.25146 11.3739 7.19611C11.3618 7.14075 11.3388 7.08836 11.3063 7.04196C11.2738 6.99556 11.2324 6.95608 11.1845 6.92581C11.1366 6.89554 11.0831 6.87508 11.0273 6.86561ZM17.2005 2.98832C16.8599 3.64708 16.1724 4.09738 15.3796 4.09738C14.2481 4.09738 13.3309 3.18009 13.3309 2.04869C13.3309 0.91718 14.2483 0 15.3796 0C16.5111 0 17.4283 0.91718 17.4283 2.04869C17.4283 2.07827 17.4276 2.10774 17.4265 2.13698C20.8177 3.89088 23.1742 9.87189 23.1742 16.7817C23.1742 19.6237 22.7768 22.3508 22.037 24.7149C22.0211 24.7696 21.9945 24.8206 21.9586 24.8649C21.9228 24.9092 21.8785 24.9458 21.8283 24.9728C21.7781 24.9997 21.723 25.0163 21.6663 25.0217C21.6096 25.0271 21.5524 25.0211 21.4981 25.0041C21.4437 24.9871 21.3933 24.9594 21.3497 24.9226C21.3062 24.8859 21.2705 24.8408 21.2446 24.7901C21.2187 24.7394 21.2032 24.684 21.199 24.6272C21.1948 24.5704 21.202 24.5133 21.2201 24.4593C21.9333 22.1799 22.3181 19.5388 22.3181 16.7817C22.3181 10.2753 20.1552 4.6766 17.2005 2.98832ZM2.52679 22.2525C2.57774 22.2487 2.6288 22.2468 2.67989 22.2468C3.8114 22.2468 4.72858 23.1642 4.72858 24.2956C4.72858 25.4271 3.81128 26.3442 2.67989 26.3442C1.54838 26.3442 0.631195 25.427 0.631195 24.2956C0.631195 23.5253 1.05629 22.8544 1.68455 22.5045C1.37606 18.6755 5.40058 13.5428 11.4825 10.0314C14.0087 8.57289 16.6391 7.53761 19.1104 7.00812C19.2214 6.98433 19.3373 7.00563 19.4326 7.06731C19.528 7.129 19.5949 7.22602 19.6186 7.33704C19.6424 7.44805 19.6211 7.56397 19.5595 7.65929C19.4978 7.7546 19.4007 7.82151 19.2897 7.84529C16.9081 8.35557 14.3612 9.35793 11.9105 10.7728C6.18285 14.0797 2.39557 18.8458 2.52679 22.2525ZM26.2691 25.3082C26.0933 24.9997 26.001 24.6507 26.0016 24.2956C26.0016 23.1641 26.9188 22.2469 28.0502 22.2469C29.1818 22.2469 30.0989 23.1641 30.0989 24.2956C30.0989 25.4271 29.1818 26.3442 28.0502 26.3442C27.6215 26.3449 27.2034 26.2104 26.8554 25.9599C23.5873 27.8826 17.3446 26.902 11.4701 23.5102C8.96927 22.0664 6.77646 20.3267 5.08863 18.4719C5.01432 18.3877 4.97613 18.2775 4.98229 18.1653C4.98846 18.0532 5.03848 17.9479 5.12158 17.8722C5.20468 17.7966 5.31418 17.7567 5.42646 17.7611C5.53874 17.7655 5.64479 17.8138 5.72173 17.8957C7.34866 19.6836 9.47206 21.3682 11.8981 22.7688C17.4422 25.9697 23.2807 26.9224 26.2691 25.3082ZM26.1347 17.9512C26.0607 18.0355 25.9565 18.0873 25.8447 18.0955C25.7328 18.1038 25.6222 18.0678 25.5366 17.9953C25.451 17.9229 25.3972 17.8197 25.3869 17.708C25.3766 17.5963 25.4105 17.485 25.4814 17.3981C28.0075 14.4138 28.8586 11.5177 27.7682 9.62924C26.9767 8.2583 25.2176 7.49744 22.7769 7.46567C22.7203 7.46549 22.6644 7.45411 22.6122 7.43216C22.5601 7.41022 22.5128 7.37816 22.4731 7.33783C22.4334 7.29751 22.4021 7.24972 22.381 7.19722C22.3599 7.14473 22.3495 7.08857 22.3502 7.032C22.3509 6.97543 22.3629 6.91957 22.3853 6.86764C22.4078 6.81572 22.4403 6.76876 22.481 6.72948C22.5218 6.6902 22.5699 6.65938 22.6226 6.63881C22.6753 6.61824 22.7315 6.60831 22.7881 6.60961C25.5018 6.64495 27.5438 7.52817 28.5096 9.20115C29.8223 11.4748 28.868 14.7223 26.1347 17.9512ZM8.98377 25.4953C8.94826 25.3891 8.95577 25.2732 9.00469 25.1725C9.0536 25.0718 9.14003 24.9942 9.24544 24.9565C9.35085 24.9187 9.46686 24.9238 9.56859 24.9705C9.67032 25.0173 9.74967 25.1021 9.78964 25.2067C11.1106 28.8953 13.1958 31.0866 15.3796 31.0866C16.9503 31.0866 18.4772 29.9616 19.7203 27.8935C19.7788 27.7962 19.8736 27.7261 19.9838 27.6987C20.0939 27.6712 20.2105 27.6887 20.3078 27.7472C20.4051 27.8057 20.4752 27.9004 20.5026 28.0106C20.5301 28.1208 20.5127 28.2373 20.4542 28.3346C19.0708 30.6356 17.297 31.9427 15.3796 31.9427C12.7507 31.9427 10.4127 29.4857 8.98377 25.4953ZM29.2426 24.2956C29.2426 23.6369 28.7087 23.103 28.0501 23.103C27.3914 23.103 26.8574 23.6369 26.8574 24.2955C26.8574 24.9542 27.3915 25.4881 28.05 25.4881C28.7087 25.4881 29.2425 24.9542 29.2425 24.2956M2.67966 25.4881C3.3383 25.4881 3.87217 24.9542 3.87217 24.2956C3.87217 23.6369 3.3383 23.103 2.67966 23.103C2.02101 23.103 1.48714 23.6369 1.48714 24.2955C1.48714 24.9542 2.02101 25.4881 2.67966 25.4881ZM15.3795 3.24121C16.0382 3.24121 16.572 2.70734 16.572 2.04869C16.572 1.39004 16.0382 0.856173 15.3795 0.856173C14.7209 0.856173 14.187 1.39004 14.187 2.04869C14.187 2.70734 14.7209 3.24121 15.3795 3.24121ZM15.6924 18.2306C14.8923 18.4035 14.1039 17.8949 13.9306 17.0947C13.7581 16.2944 14.2663 15.5062 15.0665 15.333C15.8666 15.1601 16.655 15.6685 16.8283 16.4687C17.0012 17.269 16.4926 18.0572 15.6924 18.2304" fill="#47848F"/>
</g>
<defs>
<clipPath id="clip0_952_552">
<rect width="29.47" height="32" fill="white" transform="translate(0.629883)"/>
</clipPath>
</defs>
</svg>
