<svg width="85" height="32" viewBox="0 0 85 32" fill="none" xmlns="http://www.w3.org/2000/svg">
<g clip-path="url(#clip0_952_556)">
<path d="M62.5821 26.2373L65.0345 20.0358H72.1154L68.7551 10.6283L72.9579 0L84.9957 31.9617H76.1183L74.0611 26.2373H62.5821Z" fill="#3D3D3D"/>
<path d="M55.0085 31.9619L67.8952 0L59.3517 0.000165803L50.5365 20.6544L44.268 0.000165803H37.701L30.9702 20.6544L26.2234 11.2428L21.928 24.4767L26.2893 31.9619H34.6971L40.7793 13.4393L46.5784 31.9619H55.0085Z" fill="#5A0FC8"/>
<path d="M8.21425 20.9898H13.4765C15.0705 20.9898 16.49 20.8119 17.7348 20.456L19.0957 16.2633L22.8993 4.54533C22.6071 4.08287 22.275 3.64691 21.9068 3.24245C19.9538 1.0807 17.0967 0 13.3348 0H0.104492V31.9619H8.21425V20.9898ZM15.1796 7.35304C15.9425 8.1207 16.3238 9.14819 16.3238 10.4353C16.3238 11.7322 15.9884 12.7609 15.3176 13.5211C14.5823 14.3658 13.2281 14.7881 11.2554 14.7881H8.21425V6.2017H11.2776C13.1164 6.2017 14.4169 6.58537 15.1796 7.35304Z" fill="#3D3D3D"/>
</g>
<defs>
<clipPath id="clip0_952_556">
<rect width="84.9" height="32" fill="white" transform="translate(0.100098)"/>
</clipPath>
</defs>
</svg>
