<svg width="63" height="63" viewBox="0 0 63 63" fill="none" xmlns="http://www.w3.org/2000/svg">
<path d="M35.1191 3.33334C41.6293 3.33334 47.8728 5.91949 52.4762 10.5229C57.0796 15.1263 59.6658 21.3698 59.6658 27.88M36.3325 16.6667C38.9846 16.6667 41.5282 17.7202 43.4035 19.5956C45.2789 21.471 46.3325 24.0145 46.3325 26.6667M16.3325 10L8.04912 12.07C5.08245 12.8133 2.93579 15.5 3.54246 18.4967C7.07579 35.8733 27.1258 55.9233 44.5025 59.4533C47.5025 60.0633 50.1858 57.92 50.9291 54.9533L52.9958 46.6667L41.3291 40L36.3291 45C29.6625 41.6667 21.3291 33.3333 17.9958 26.6667L22.9991 21.6667L16.3325 10Z" stroke="url(#paint0_linear_198_1072)" stroke-width="5" stroke-linecap="round" stroke-linejoin="round"/>
<defs>
<linearGradient id="paint0_linear_198_1072" x1="59.6658" y1="31.4454" x2="3.43945" y2="31.4454" gradientUnits="userSpaceOnUse">
<stop stop-color="#03C8D0"/>
<stop offset="1" stop-color="#2473E9"/>
</linearGradient>
</defs>
</svg>
