<svg width="66" height="46" viewBox="0 0 66 46" fill="none" xmlns="http://www.w3.org/2000/svg">
<path d="M63 6.33333V39.6667C63 40.5507 62.6488 41.3986 62.0237 42.0237C61.3986 42.6488 60.5507 43 59.6667 43H6.33333C5.44928 43 4.60143 42.6488 3.97631 42.0237C3.35119 41.3986 3 40.5507 3 39.6667V6.33333M63 6.33333C63 5.44928 62.6488 4.60143 62.0237 3.97631C61.3986 3.35119 60.5507 3 59.6667 3H6.33333C5.44928 3 4.60143 3.35119 3.97631 3.97631C3.35119 4.60143 3 5.44928 3 6.33333M63 6.33333L37.2667 27.7767C36.0687 28.7744 34.559 29.3208 33 29.3208C31.441 29.3208 29.9313 28.7744 28.7333 27.7767L3 6.33333" stroke="url(#paint0_linear_198_1070)" stroke-width="5" stroke-linecap="round" stroke-linejoin="round"/>
<defs>
<linearGradient id="paint0_linear_198_1070" x1="63" y1="23" x2="3" y2="23" gradientUnits="userSpaceOnUse">
<stop stop-color="#03C8D0"/>
<stop offset="1" stop-color="#2473E9"/>
</linearGradient>
</defs>
</svg>
