<svg width="52" height="60" viewBox="0 0 52 60" fill="none" xmlns="http://www.w3.org/2000/svg">
<path d="M17.666 16.6333V16.6667M34.3327 16.6V16.6333M20.9993 56.6667H5.99935C5.11529 56.6667 4.26745 56.3155 3.64233 55.6904C3.01721 55.0652 2.66602 54.2174 2.66602 53.3333V6.66668C2.66602 5.78262 3.01721 4.93478 3.64233 4.30965C4.26745 3.68453 5.11529 3.33334 5.99935 3.33334H45.9994C46.8834 3.33334 47.7313 3.68453 48.3564 4.30965C48.9815 4.93478 49.3327 5.78262 49.3327 6.66668V53.3333C49.3327 54.2174 48.9815 55.0652 48.3564 55.6904C47.7313 56.3155 46.8834 56.6667 45.9994 56.6667H30.9994M20.9993 56.6667V43.3333H30.9994V56.6667M20.9993 56.6667H30.9994M17.666 29.9333V29.9667M34.3327 29.9667V30" stroke="url(#paint0_linear_198_1074)" stroke-width="5" stroke-linecap="round" stroke-linejoin="round"/>
<defs>
<linearGradient id="paint0_linear_198_1074" x1="49.3327" y1="30" x2="2.66602" y2="30" gradientUnits="userSpaceOnUse">
<stop stop-color="#03C8D0"/>
<stop offset="1" stop-color="#2473E9"/>
</linearGradient>
</defs>
</svg>
