<svg width="24" height="24" viewBox="0 0 24 24" fill="none" xmlns="http://www.w3.org/2000/svg">
<path d="M20.4 1.2002H3.60001C2.28001 1.2002 1.20001 2.2802 1.20001 3.6002V20.4002C1.20001 21.7214 2.28001 22.8002 3.60001 22.8002H12V14.4002H9.60001V11.4302H12V8.97019C12 6.37339 13.4544 4.5494 16.5192 4.5494L18.6828 4.5518V7.67779H17.2464C16.0536 7.67779 15.6 8.57299 15.6 9.40339V11.4314H18.6816L18 14.4002H15.6V22.8002H20.4C21.72 22.8002 22.8 21.7214 22.8 20.4002V3.6002C22.8 2.2802 21.72 1.2002 20.4 1.2002Z" fill="#494949"/>
</svg>
