<svg width="24" height="24" viewBox="0 0 24 24" fill="none" xmlns="http://www.w3.org/2000/svg">
<path d="M20.4 1.2002H3.60001C2.28001 1.2002 1.20001 2.2802 1.20001 3.6002V20.4002C1.20001 21.7214 2.28001 22.8002 3.60001 22.8002H20.4C21.72 22.8002 22.8 21.7214 22.8 20.4002V3.6002C22.8 2.2802 21.72 1.2002 20.4 1.2002ZM11.9808 18.6278C13.7434 18.6275 15.4338 17.927 16.68 16.6806C17.9263 15.4341 18.6264 13.7436 18.6264 11.981C18.6264 11.5754 18.5748 11.1842 18.5028 10.8002H20.4V19.4594C20.4 19.5684 20.3785 19.6764 20.3366 19.7771C20.2948 19.8778 20.2335 19.9692 20.1562 20.0462C20.079 20.1231 19.9873 20.184 19.8864 20.2254C19.7855 20.2668 19.6774 20.2879 19.5684 20.2874H4.43161C4.32258 20.2879 4.21452 20.2668 4.11364 20.2254C4.01277 20.184 3.92107 20.1231 3.8438 20.0462C3.76653 19.9692 3.70522 19.8778 3.66338 19.7771C3.62155 19.6764 3.60001 19.5684 3.60001 19.4594V10.8002H5.45881C5.38561 11.1842 5.33401 11.5754 5.33401 11.981C5.33433 13.7437 6.03472 15.4342 7.28117 16.6806C8.52761 17.9271 10.2181 18.6275 11.9808 18.6278ZM7.82761 11.981C7.82761 11.4356 7.93504 10.8955 8.14375 10.3916C8.35247 9.88774 8.6584 9.4299 9.04406 9.04424C9.42972 8.65858 9.88756 8.35266 10.3915 8.14394C10.8953 7.93522 11.4354 7.82779 11.9808 7.82779C12.5262 7.82779 13.0663 7.93522 13.5702 8.14394C14.0741 8.35266 14.5319 8.65858 14.9176 9.04424C15.3032 9.4299 15.6091 9.88774 15.8179 10.3916C16.0266 10.8955 16.134 11.4356 16.134 11.981C16.134 13.0825 15.6964 14.1389 14.9176 14.9178C14.1387 15.6966 13.0823 16.1342 11.9808 16.1342C10.8793 16.1342 9.82293 15.6966 9.04406 14.9178C8.26518 14.1389 7.82761 13.0825 7.82761 11.981ZM19.5684 7.20019H17.6304C17.4104 7.19956 17.1995 7.11187 17.0439 6.95628C16.8883 6.80068 16.8006 6.58984 16.8 6.3698V4.4294C16.8 3.971 17.172 3.6002 17.6292 3.6002H19.5672C20.028 3.6002 20.4 3.971 20.4 4.4294V6.3686C20.4 6.8258 20.028 7.20019 19.5684 7.20019Z" fill="#494949"/>
</svg>
