<svg width="24" height="24" viewBox="0 0 24 24" fill="none" xmlns="http://www.w3.org/2000/svg">
<path d="M20.7792 7.49521C20.7888 7.68961 20.7924 7.88641 20.7924 8.08081C20.7924 14.0688 16.236 20.9712 7.90442 20.9712C5.34482 20.9712 2.96522 20.2212 0.960022 18.9348C2.14607 19.0782 3.34876 18.9865 4.49935 18.6649C5.64993 18.3433 6.72586 17.7981 7.66562 17.0604C6.72052 17.0425 5.80463 16.7298 5.046 16.1659C4.28736 15.602 3.72391 14.8151 3.43442 13.9152C4.1137 14.0422 4.81279 14.0156 5.48042 13.8372C4.45516 13.6293 3.5333 13.0733 2.87108 12.2635C2.20885 11.4536 1.847 10.4397 1.84682 9.39361V9.33721C2.47586 9.68713 3.17938 9.88173 3.89882 9.90481C2.93867 9.26471 2.25899 8.28232 1.99852 7.15814C1.73805 6.03396 1.91642 4.85276 2.49722 3.85561C3.63457 5.25537 5.05364 6.40022 6.66227 7.2158C8.2709 8.03138 10.0331 8.49945 11.8344 8.58961C11.7565 8.25076 11.7174 7.90412 11.718 7.55641C11.718 6.96174 11.8352 6.37289 12.0628 5.8235C12.2904 5.27411 12.624 4.77494 13.0445 4.35449C13.4651 3.93405 13.9644 3.60058 14.5138 3.37311C15.0633 3.14565 15.6521 3.02866 16.2468 3.02881C16.8666 3.0278 17.4799 3.15414 18.0488 3.39999C18.6177 3.64584 19.1301 4.00596 19.554 4.45801C20.5682 4.25725 21.5408 3.88556 22.4304 3.35881C22.0921 4.40786 21.3842 5.29828 20.4384 5.86441C21.3363 5.75797 22.2133 5.5177 23.04 5.15161C22.4327 6.06174 21.6669 6.85551 20.7792 7.49521Z" fill="#494949"/>
</svg>
